<svg width="90" height="90" viewBox="0 0 90 90" fill="none" xmlns="http://www.w3.org/2000/svg">
<circle cx="45" cy="45" r="45" fill="#C3F53C"/>
<circle cx="45" cy="45" r="44" stroke="#274118" stroke-opacity="0.75" stroke-width="2"/>
<path d="M88 47C88 69.6437 67.859 88 44.8424 88C19.5 87 8 71.5 4 58C4 58 18.6422 70.6402 41.6588 70.6402C66.3939 70.6402 88 47 88 47Z" fill="url(#paint0_linear_130_4658)"/>
<g clip-path="url(#clip0_130_4658)">
<path d="M45.175 63.3905C45.2526 63.3953 45.3239 63.4361 45.3674 63.5013C45.8039 64.1561 46.0362 64.5037 46.1598 64.6881C46.277 64.6068 46.4413 64.4912 46.6463 64.3432C47.0757 64.0331 47.6844 63.5798 48.4127 62.9999C49.867 61.8419 51.8098 60.1694 53.7575 58.1135C57.5944 54.0634 61.7094 48.2548 61.7094 41.8C61.7094 37.4107 59.9657 33.2011 56.862 30.0974C53.7583 26.9937 49.5487 25.25 45.1594 25.25C40.77 25.25 36.5605 26.9937 33.4568 30.0974C30.353 33.2011 28.6094 37.4107 28.6094 41.8C28.6094 48.2548 32.7244 54.0634 36.5613 58.1135C38.509 60.1694 40.4518 61.8419 41.9061 62.9999C42.6344 63.5798 43.2431 64.0331 43.6724 64.3432L43.5261 64.5458L43.6724 64.3432C43.8775 64.4913 44.0418 64.6069 44.159 64.6882L44.951 63.5019C44.9511 63.5017 44.9512 63.5015 44.9514 63.5013L44.9515 63.5012C44.9572 63.4925 44.9635 63.4843 44.9702 63.4766L45.175 63.3905ZM45.175 63.3905C45.1698 63.3902 45.1646 63.39 45.1594 63.39L45.175 63.3905ZM46.2238 65.2499C45.5794 65.676 44.7423 65.676 44.0975 65.2516C44.0908 65.2475 44.0876 65.245 44.0885 65.2456M46.2238 65.2499L44.0885 65.2456M46.2238 65.2499C46.2294 65.2465 46.2322 65.2444 46.2317 65.2447L46.2238 65.2499ZM44.0885 65.2456L44.0879 65.2453L44.0885 65.2456ZM45.0108 61.779C45.0991 61.8443 45.2196 61.8443 45.308 61.779C45.6679 61.513 46.1171 61.1719 46.6311 60.7626C48.0118 59.6632 49.8489 58.0806 51.6813 56.1465C55.4044 52.2166 58.8494 47.1052 58.8494 41.8C58.8494 38.1692 57.407 34.6871 54.8397 32.1197C52.2723 29.5523 48.7902 28.11 45.1594 28.11C41.5286 28.11 38.0465 29.5523 35.4791 32.1197C32.9117 34.6871 31.4694 38.1692 31.4694 41.8C31.4694 47.1052 34.9144 52.2166 38.6375 56.1465C40.4698 58.0806 42.307 59.6632 43.6877 60.7626C44.2017 61.1719 44.6508 61.513 45.0108 61.779Z" fill="#717171" stroke="#C3F53C" stroke-width="0.5" stroke-linecap="round" stroke-linejoin="round"/>
<path d="M45.1595 38.1901C43.1657 38.1901 41.5495 39.8063 41.5495 41.8001C41.5495 43.7938 43.1657 45.4101 45.1595 45.4101C47.1532 45.4101 48.7695 43.7938 48.7695 41.8001C48.7695 39.8063 47.1532 38.1901 45.1595 38.1901ZM38.6895 41.8001C38.6895 38.2268 41.5862 35.3301 45.1595 35.3301C48.7327 35.3301 51.6295 38.2268 51.6295 41.8001C51.6295 45.3734 48.7327 48.2701 45.1595 48.2701C41.5862 48.2701 38.6895 45.3734 38.6895 41.8001Z" fill="#717171" stroke="#C3F53C" stroke-width="0.5" stroke-linecap="round" stroke-linejoin="round"/>
</g>
<defs>
<linearGradient id="paint0_linear_130_4658" x1="46" y1="47" x2="46" y2="88" gradientUnits="userSpaceOnUse">
<stop stop-color="#7DE426"/>
<stop offset="1" stop-color="#63DE1F"/>
</linearGradient>
<clipPath id="clip0_130_4658">
<rect width="40.32" height="40.32" fill="white" transform="translate(25 25)"/>
</clipPath>
</defs>
</svg>
