<svg width="90" height="90" viewBox="0 0 90 90" fill="none" xmlns="http://www.w3.org/2000/svg">
<circle cx="45" cy="45" r="45" fill="#C3F53C"/>
<circle cx="45" cy="45" r="44" stroke="#274118" stroke-opacity="0.75" stroke-width="2"/>
<path d="M88 47C88 69.6437 67.859 88 44.8424 88C19.5 87 8 71.5 4 58C4 58 18.6422 70.6402 41.6588 70.6402C66.3939 70.6402 88 47 88 47Z" fill="url(#paint0_linear_130_4650)"/>
<g clip-path="url(#clip0_130_4650)">
<path d="M63.528 44.9365C63.5281 44.9365 63.5281 44.9365 63.5282 44.9364C63.5285 44.9363 63.5287 44.9362 63.529 44.936L64.803 44.2978C64.747 44.1926 64.6707 44.0523 64.5746 43.8815C64.3554 43.4917 64.032 42.9415 63.6075 42.2842C62.7604 40.9725 61.5014 39.22 59.8532 37.462C56.583 33.9738 51.6112 30.29 45.16 30.29C38.7088 30.29 33.737 33.9738 30.4668 37.462C28.8186 39.22 27.5596 40.9725 26.7125 42.2842C26.288 42.9415 25.9646 43.4917 25.7454 43.8815C25.6493 44.0523 25.573 44.1926 25.517 44.2978C25.7141 44.397 26.084 44.5825 26.7775 44.9293C26.7815 44.9313 26.7855 44.9333 26.7896 44.9353C26.8128 44.9466 26.8343 44.9615 26.8533 44.9797C26.86 44.9862 26.8664 44.9931 26.8723 45.0002C26.8876 45.0186 26.9 45.039 26.9094 45.0606C26.9234 45.0929 26.9301 45.1267 26.9301 45.16C26.9301 45.1934 26.9234 45.2272 26.9094 45.2595C26.8977 45.2865 26.8812 45.3116 26.8603 45.3333C26.8535 45.3404 26.8463 45.3471 26.8387 45.3533C26.8235 45.3657 26.807 45.3763 26.7896 45.3848C26.7886 45.3852 26.7877 45.3857 26.7867 45.3862L25.5164 46.0213C25.5726 46.1266 25.649 46.2672 25.7454 46.4386C25.9646 46.8284 26.288 47.3786 26.7125 48.0359C27.5596 49.3476 28.8186 51.1001 30.4668 52.8581C33.737 56.3463 38.7088 60.03 45.16 60.03C51.6112 60.03 56.583 56.3463 59.8532 52.8581C61.5014 51.1001 62.7604 49.3476 63.6075 48.0359C64.032 47.3786 64.3554 46.8284 64.5746 46.4386C64.6707 46.2678 64.747 46.1275 64.803 46.0223C64.6047 45.9224 64.2315 45.7353 63.5299 45.3845C63.5293 45.3842 63.5288 45.3839 63.5282 45.3836C63.4435 45.3413 63.39 45.2548 63.39 45.1601L63.528 44.9365ZM63.528 44.9365C63.4434 44.9789 63.39 45.0654 63.39 45.16L63.528 44.9365ZM65.0109 44.7537C65.0892 45.0187 65.0893 45.3012 65.0111 45.5661L64.199 45.16C64.607 44.956 64.8573 44.8307 65.0109 44.7537ZM26.121 45.16C25.7127 45.3641 25.4623 45.4892 25.3088 45.5659C25.2304 45.301 25.2304 45.0188 25.3088 44.754L26.121 45.16ZM28.3801 45.0348C28.3352 45.1123 28.3352 45.2078 28.3801 45.2853C28.5655 45.6057 28.8111 46.0136 29.115 46.4842C29.8954 47.6925 31.0514 49.3 32.5532 50.902C35.5832 54.134 39.8514 57.17 45.16 57.17C50.4686 57.17 54.7368 54.134 57.7668 50.902C59.2687 49.3 60.4246 47.6925 61.205 46.4842C61.5089 46.0136 61.7545 45.6057 61.9399 45.2853C61.9848 45.2078 61.9848 45.1123 61.9399 45.0348C61.7545 44.7143 61.5089 44.3065 61.205 43.8358C60.4246 42.6276 59.2687 41.0201 57.7668 39.4181C54.7368 36.1861 50.4686 33.15 45.16 33.15C39.8514 33.15 35.5832 36.1861 32.5532 39.4181C31.0514 41.0201 29.8954 42.6276 29.115 43.8359C28.8111 44.3065 28.5655 44.7143 28.3801 45.0348Z" fill="#717171" stroke="#C3F53C" stroke-width="0.5" stroke-linecap="round" stroke-linejoin="round"/>
<path d="M45.1595 41.5504C43.1657 41.5504 41.5495 43.1667 41.5495 45.1604C41.5495 47.1542 43.1657 48.7704 45.1595 48.7704C47.1532 48.7704 48.7695 47.1542 48.7695 45.1604C48.7695 43.1667 47.1532 41.5504 45.1595 41.5504ZM38.6895 45.1604C38.6895 41.5871 41.5862 38.6904 45.1595 38.6904C48.7327 38.6904 51.6295 41.5871 51.6295 45.1604C51.6295 48.7337 48.7327 51.6304 45.1595 51.6304C41.5862 51.6304 38.6895 48.7337 38.6895 45.1604Z" fill="#717171" stroke="#C3F53C" stroke-width="0.5" stroke-linecap="round" stroke-linejoin="round"/>
</g>
<defs>
<linearGradient id="paint0_linear_130_4650" x1="46" y1="47" x2="46" y2="88" gradientUnits="userSpaceOnUse">
<stop stop-color="#7DE426"/>
<stop offset="1" stop-color="#63DE1F"/>
</linearGradient>
<clipPath id="clip0_130_4650">
<rect width="40.32" height="40.32" fill="white" transform="translate(25 25)"/>
</clipPath>
</defs>
</svg>
