<svg width="41" height="41" viewBox="0 0 41 41" fill="none" xmlns="http://www.w3.org/2000/svg">
<g clip-path="url(#clip0_130_4653)">
<path d="M38.528 19.9365C38.5281 19.9365 38.5281 19.9365 38.5282 19.9364C38.5285 19.9363 38.5287 19.9362 38.529 19.936L39.803 19.2978C39.747 19.1926 39.6707 19.0523 39.5746 18.8815C39.3554 18.4917 39.032 17.9415 38.6075 17.2842C37.7604 15.9725 36.5014 14.22 34.8532 12.462C31.583 8.97376 26.6112 5.29004 20.16 5.29004C13.7088 5.29004 8.73699 8.97376 5.46676 12.462C3.81865 14.22 2.55964 15.9725 1.71249 17.2842C1.28803 17.9415 0.964631 18.4917 0.745366 18.8815C0.649262 19.0523 0.57304 19.1926 0.516964 19.2978C0.714131 19.397 1.08399 19.5825 1.77748 19.9293C1.7815 19.9313 1.78553 19.9333 1.78957 19.9353C1.81277 19.9466 1.83431 19.9615 1.85327 19.9797C1.86003 19.9862 1.86638 19.9931 1.8723 20.0002C1.88757 20.0186 1.90002 20.039 1.90939 20.0606C1.92341 20.0929 1.93008 20.1267 1.93005 20.16C1.93008 20.1934 1.92341 20.2272 1.90939 20.2595C1.89767 20.2865 1.88116 20.3116 1.86031 20.3333C1.85347 20.3404 1.84626 20.3471 1.83872 20.3533C1.82353 20.3657 1.80702 20.3763 1.78957 20.3848C1.78861 20.3852 1.78766 20.3857 1.7867 20.3862L0.516442 21.0213C0.572567 21.1266 0.648964 21.2672 0.745366 21.4386C0.964631 21.8284 1.28803 22.3786 1.71249 23.0359C2.55964 24.3476 3.81865 26.1001 5.46676 27.8581C8.73699 31.3463 13.7088 35.03 20.16 35.03C26.6112 35.03 31.583 31.3463 34.8532 27.8581C36.5014 26.1001 37.7604 24.3476 38.6075 23.0359C39.032 22.3786 39.3554 21.8284 39.5746 21.4386C39.6707 21.2678 39.747 21.1275 39.803 21.0223C39.6047 20.9224 39.2315 20.7353 38.5299 20.3845C38.5293 20.3842 38.5288 20.3839 38.5282 20.3836C38.4435 20.3413 38.39 20.2548 38.39 20.1601L38.528 19.9365ZM38.528 19.9365C38.4434 19.9789 38.39 20.0654 38.39 20.16L38.528 19.9365ZM40.0109 19.7537C40.0892 20.0187 40.0893 20.3012 40.0111 20.5661L39.199 20.16C39.607 19.956 39.8573 19.8307 40.0109 19.7537ZM1.12096 20.16C0.71265 20.3641 0.462284 20.4892 0.308781 20.5659C0.230384 20.301 0.230406 20.0188 0.308849 19.754L1.12096 20.16ZM3.38006 20.0348C3.33524 20.1123 3.33524 20.2078 3.38006 20.2853C3.56552 20.6057 3.81105 21.0136 4.11501 21.4842C4.89536 22.6925 6.05135 24.3 7.55324 25.902C10.5832 29.134 14.8514 32.17 20.16 32.17C25.4686 32.17 29.7368 29.134 32.7668 25.902C34.2687 24.3 35.4246 22.6925 36.205 21.4842C36.5089 21.0136 36.7545 20.6057 36.9399 20.2853C36.9848 20.2078 36.9848 20.1123 36.9399 20.0348C36.7545 19.7143 36.5089 19.3065 36.205 18.8358C35.4246 17.6276 34.2687 16.0201 32.7668 14.4181C29.7368 11.1861 25.4686 8.15004 20.16 8.15004C14.8514 8.15004 10.5832 11.1861 7.55324 14.4181C6.05135 16.0201 4.89536 17.6276 4.11501 18.8359C3.81105 19.3065 3.56552 19.7143 3.38006 20.0348Z" fill="#717171" stroke="#C3F53C" stroke-width="0.5" stroke-linecap="round" stroke-linejoin="round"/>
<path d="M20.1595 16.5504C18.1657 16.5504 16.5495 18.1667 16.5495 20.1604C16.5495 22.1542 18.1657 23.7704 20.1595 23.7704C22.1532 23.7704 23.7695 22.1542 23.7695 20.1604C23.7695 18.1667 22.1532 16.5504 20.1595 16.5504ZM13.6895 20.1604C13.6895 16.5871 16.5862 13.6904 20.1595 13.6904C23.7327 13.6904 26.6295 16.5871 26.6295 20.1604C26.6295 23.7337 23.7327 26.6304 20.1595 26.6304C16.5862 26.6304 13.6895 23.7337 13.6895 20.1604Z" fill="#717171" stroke="#C3F53C" stroke-width="0.5" stroke-linecap="round" stroke-linejoin="round"/>
</g>
<defs>
<clipPath id="clip0_130_4653">
<rect width="40.32" height="40.32" fill="white"/>
</clipPath>
</defs>
</svg>
