<svg width="41" height="41" viewBox="0 0 41 41" fill="none" xmlns="http://www.w3.org/2000/svg">
<g clip-path="url(#clip0_130_4661)">
<path d="M20.175 38.3905C20.2526 38.3953 20.3239 38.4361 20.3674 38.5013C20.8039 39.1561 21.0362 39.5037 21.1598 39.6881C21.277 39.6068 21.4413 39.4912 21.6463 39.3432C22.0757 39.0331 22.6844 38.5798 23.4127 37.9999C24.867 36.8419 26.8098 35.1694 28.7575 33.1135C32.5944 29.0634 36.7094 23.2548 36.7094 16.8C36.7094 12.4107 34.9657 8.20111 31.862 5.09738C28.7583 1.99366 24.5487 0.25 20.1594 0.25C15.77 0.25 11.5605 1.99366 8.45676 5.09738C5.35303 8.20111 3.60938 12.4107 3.60938 16.8C3.60938 23.2548 7.72437 29.0634 11.5613 33.1135C13.509 35.1694 15.4518 36.8419 16.9061 37.9999C17.6344 38.5798 18.2431 39.0331 18.6724 39.3432L18.5261 39.5458L18.6724 39.3432C18.8775 39.4913 19.0418 39.6069 19.159 39.6882L19.951 38.5019C19.9511 38.5017 19.9512 38.5015 19.9514 38.5013L19.9515 38.5012C19.9572 38.4925 19.9635 38.4843 19.9702 38.4766L20.175 38.3905ZM20.175 38.3905C20.1698 38.3902 20.1646 38.39 20.1594 38.39L20.175 38.3905ZM21.2238 40.2499C20.5794 40.676 19.7423 40.676 19.0975 40.2516C19.0908 40.2475 19.0876 40.245 19.0885 40.2456M21.2238 40.2499L19.0885 40.2456M21.2238 40.2499C21.2294 40.2465 21.2322 40.2444 21.2317 40.2447L21.2238 40.2499ZM19.0885 40.2456L19.0879 40.2453L19.0885 40.2456ZM20.0108 36.779C20.0991 36.8443 20.2196 36.8443 20.308 36.779C20.6679 36.513 21.1171 36.1719 21.6311 35.7626C23.0118 34.6632 24.8489 33.0806 26.6813 31.1465C30.4044 27.2166 33.8494 22.1052 33.8494 16.8C33.8494 13.1692 32.407 9.68708 29.8397 7.11971C27.2723 4.55233 23.7902 3.11 20.1594 3.11C16.5286 3.11 13.0465 4.55233 10.4791 7.11971C7.91171 9.68708 6.46938 13.1692 6.46938 16.8C6.46938 22.1052 9.91438 27.2166 13.6375 31.1465C15.4698 33.0806 17.307 34.6632 18.6877 35.7626C19.2017 36.1719 19.6508 36.513 20.0108 36.779Z" fill="#717171" stroke="#C3F53C" stroke-width="0.5" stroke-linecap="round" stroke-linejoin="round"/>
<path d="M20.1595 13.1901C18.1657 13.1901 16.5495 14.8063 16.5495 16.8001C16.5495 18.7938 18.1657 20.4101 20.1595 20.4101C22.1532 20.4101 23.7695 18.7938 23.7695 16.8001C23.7695 14.8063 22.1532 13.1901 20.1595 13.1901ZM13.6895 16.8001C13.6895 13.2268 16.5862 10.3301 20.1595 10.3301C23.7327 10.3301 26.6295 13.2268 26.6295 16.8001C26.6295 20.3734 23.7327 23.2701 20.1595 23.2701C16.5862 23.2701 13.6895 20.3734 13.6895 16.8001Z" fill="#717171" stroke="#C3F53C" stroke-width="0.5" stroke-linecap="round" stroke-linejoin="round"/>
</g>
<defs>
<clipPath id="clip0_130_4661">
<rect width="40.32" height="40.32" fill="white"/>
</clipPath>
</defs>
</svg>
