<svg width="90" height="90" viewBox="0 0 90 90" fill="none" xmlns="http://www.w3.org/2000/svg">
<circle cx="45" cy="45" r="45" fill="#C3F53C"/>
<circle cx="45" cy="45" r="44" stroke="#274118" stroke-opacity="0.75" stroke-width="2"/>
<path d="M88 47C88 69.6437 67.859 88 44.8424 88C19.5 87 8 71.5 4 58C4 58 18.6422 70.6402 41.6588 70.6402C66.3939 70.6402 88 47 88 47Z" fill="url(#paint0_linear_130_4666)"/>
<path d="M46.8144 40.0888C46.8055 40.1599 46.8276 40.2315 46.8751 40.2852C46.9225 40.339 46.9908 40.3698 47.0625 40.3698H60.2794C60.8343 40.3698 61.339 40.6908 61.5744 41.1932C61.8097 41.6957 61.7332 42.289 61.378 42.7152L44.578 62.8752C44.1716 63.3629 43.4923 63.5243 42.91 63.2715C42.3277 63.0187 41.9817 62.4123 42.0604 61.7824L43.5044 50.2308C43.5133 50.1596 43.4912 50.0881 43.4437 50.0343C43.3963 49.9806 43.328 49.9498 43.2563 49.9498H30.0394C29.4845 49.9498 28.9798 49.6288 28.7444 49.1263C28.5091 48.6238 28.5856 48.0306 28.9408 47.6043L45.7408 27.4443C46.1472 26.9566 46.8265 26.7953 47.4088 27.048C47.9911 27.3008 48.3371 27.9072 48.2584 28.5372L46.8144 40.0888ZM33.4342 46.6797C33.3721 46.7543 33.3587 46.858 33.3999 46.9458C33.441 47.0337 33.5293 47.0898 33.6263 47.0898H45.1594C45.5696 47.0898 45.96 47.2659 46.2314 47.5734C46.5029 47.8809 46.6292 48.2902 46.5784 48.6972L45.6091 56.4512C45.5953 56.5613 45.6558 56.6673 45.7576 56.7115C45.8594 56.7557 45.9782 56.7275 46.0492 56.6423L56.8846 43.6398C56.9467 43.5653 56.9601 43.4616 56.9189 43.3737C56.8778 43.2859 56.7895 43.2298 56.6925 43.2298H45.1594C44.7492 43.2298 44.3588 43.0537 44.0874 42.7462C43.8159 42.4387 43.6896 42.0294 43.7404 41.6224L44.7097 33.8684C44.7235 33.7582 44.663 33.6522 44.5612 33.608C44.4594 33.5638 44.3406 33.592 44.2696 33.6773L33.4342 46.6797Z" fill="#717171" stroke="#C3F53C" stroke-width="0.5" stroke-linecap="round" stroke-linejoin="round"/>
<defs>
<linearGradient id="paint0_linear_130_4666" x1="46" y1="47" x2="46" y2="88" gradientUnits="userSpaceOnUse">
<stop stop-color="#7DE426"/>
<stop offset="1" stop-color="#63DE1F"/>
</linearGradient>
</defs>
</svg>
