<svg width="90" height="90" viewBox="0 0 90 90" fill="none" xmlns="http://www.w3.org/2000/svg">
<circle cx="45" cy="45" r="45" fill="#C3F53C"/>
<circle cx="45" cy="45" r="44" stroke="#274118" stroke-opacity="0.75" stroke-width="2"/>
<path d="M88 47C88 69.6437 67.859 88 44.8424 88C19.5 87 8 71.5 4 58C4 58 18.6422 70.6402 41.6588 70.6402C66.3939 70.6402 88 47 88 47Z" fill="url(#paint0_linear_130_4674)"/>
<path d="M45.1597 29.8397C36.6987 29.8397 29.8397 36.6987 29.8397 45.1597C29.8397 53.6207 36.6987 60.4797 45.1597 60.4797C53.6207 60.4797 60.4797 53.6207 60.4797 45.1597C60.4797 36.6987 53.6207 29.8397 45.1597 29.8397ZM26.8797 45.1597C26.8797 35.0639 35.0639 26.8797 45.1597 26.8797C55.2555 26.8797 63.4397 35.0639 63.4397 45.1597C63.4397 55.2555 55.2555 63.4397 45.1597 63.4397C35.0639 63.4397 26.8797 55.2555 26.8797 45.1597Z" fill="#717171" stroke="#C3F53C" stroke-width="0.4" stroke-linecap="round" stroke-linejoin="round"/>
<path d="M46.6905 44.6786C46.6905 44.7067 46.6984 44.7342 46.7133 44.7581L50.6579 51.0695C51.1058 51.786 50.8879 52.73 50.1714 53.1778C49.4548 53.6257 48.5109 53.4078 48.063 52.6913L43.863 45.9713C43.7111 45.7281 43.6305 45.4471 43.6305 45.1604V35.0804C43.6305 34.2354 44.3155 33.5504 45.1605 33.5504C46.0055 33.5504 46.6905 34.2354 46.6905 35.0804V44.6786Z" fill="#717171" stroke="#C3F53C" stroke-width="0.3" stroke-linecap="round" stroke-linejoin="round"/>
<defs>
<linearGradient id="paint0_linear_130_4674" x1="46" y1="47" x2="46" y2="88" gradientUnits="userSpaceOnUse">
<stop stop-color="#7DE426"/>
<stop offset="1" stop-color="#63DE1F"/>
</linearGradient>
</defs>
</svg>
